<svg xmlns="http://www.w3.org/2000/svg" viewBox="0 0 1200 720" width="1200" height="720" role="img" aria-label="Anonym stresset kontoransat med stor næse bag en vaklende papirbunke, med et lille skilt der viser 7-6 i rødt">
  <rect width="1200" height="720" fill="#ffffff"/>
  <g fill="none" stroke="#111" stroke-linecap="round" stroke-linejoin="round">
    <path d="M60 645 C400 660 800 630 1140 648" stroke-width="2.4"/>
    <!-- desk -->
    <path d="M300 470 L960 462 L962 492 L302 500 Z" fill="#fff" stroke-width="3.4"/>
    <path d="M330 500 L326 640 M930 492 L936 640" stroke-width="3.4"/>
    <!-- leaning paper stack -->
    <path d="M610 462 L712 460 L716 440 L612 442 Z" fill="#fff" stroke-width="2.8"/>
    <path d="M614 442 L718 438 L726 416 L620 420 Z" fill="#fff" stroke-width="2.8"/>
    <path d="M622 420 L726 414 L738 390 L632 396 Z" fill="#fff" stroke-width="2.8"/>
    <path d="M634 396 L738 388 L754 362 L650 370 Z" fill="#fff" stroke-width="2.8"/>
    <path d="M652 370 L756 360 L776 332 L672 342 Z" fill="#fff" stroke-width="2.8"/>
    <path d="M674 342 L778 330 L800 300 L698 312 Z" fill="#fff" stroke-width="2.8"/>
    <path d="M700 312 L802 298 L828 266 L728 280 Z" fill="#fff" stroke-width="2.8"/>
    <path d="M730 280 L830 264 L858 230 L760 246 Z" fill="#fff" stroke-width="2.8"/>
    <path d="M762 246 L860 228 L890 192 L794 210 Z" fill="#fff" stroke-width="2.8"/>
    <path d="M796 210 L892 190 L922 152 L830 172 Z" fill="#fff" stroke-width="2.8"/>
    <!-- flying sheet -->
    <path d="M950 120 L1010 108 L1022 150 L962 162 Z" fill="#fff" stroke-width="2.4"/>
    <path d="M930 140 C940 132 946 126 948 120" stroke-width="1.8"/>
    <!-- worker peeking: head -->
    <path d="M470 330 C462 280 488 248 522 248 C560 248 586 280 580 330 C576 372 552 400 524 400 C494 400 474 372 470 330 Z" fill="#fff" stroke-width="3.4"/>
    <!-- messy hair -->
    <path d="M482 280 L470 256 M498 262 L494 236 M518 254 L522 228 M540 256 L552 232 M560 266 L578 246" stroke-width="2.6"/>
    <!-- wide eyes -->
    <circle cx="504" cy="312" r="13" fill="#fff" stroke-width="2.6"/>
    <circle cx="548" cy="310" r="13" fill="#fff" stroke-width="2.6"/>
    <circle cx="506" cy="314" r="4" fill="#111" stroke="none"/>
    <circle cx="550" cy="312" r="4" fill="#111" stroke="none"/>
    <!-- big nose resting on desk edge -->
    <path d="M524 320 C548 330 600 360 604 398 C608 432 576 446 548 434 C524 424 516 396 520 360 Z" fill="#fff" stroke-width="3.2"/>
    <!-- sweat drops -->
    <path d="M454 300 C446 314 448 324 456 324 C464 324 464 312 454 300 Z" stroke-width="2.2"/>
    <path d="M592 272 C586 284 588 292 594 292 C600 292 600 282 592 272 Z" stroke-width="2.2"/>
    <!-- hands gripping desk -->
    <path d="M440 470 C440 452 470 448 476 466 M600 466 C606 448 634 452 632 470" stroke-width="3"/>
    <!-- coffee cup -->
    <path d="M370 470 L376 420 L420 420 L426 470 Z" fill="#fff" stroke-width="3"/>
    <path d="M426 432 C446 432 446 456 424 456" stroke-width="2.6"/>
    <path d="M388 408 C382 396 394 388 388 376 M408 408 C402 396 414 388 408 376" stroke-width="2"/>
    <!-- clock -->
    <circle cx="240" cy="190" r="62" fill="#fff" stroke-width="3.2"/>
    <path d="M240 190 L240 150 M240 190 L270 206" stroke-width="3"/>
    <path d="M168 150 L150 132 M312 150 L330 132" stroke-width="2.6"/>
    <!-- little vote sign on stick -->
    <path d="M1000 470 L1000 360" stroke-width="3"/>
    <path d="M940 300 L1062 296 L1064 362 L942 366 Z" fill="#fff" stroke-width="3.2"/>
  </g>
  <text x="1003" y="348" text-anchor="middle" font-family="Georgia, serif" font-size="44" font-weight="bold" fill="#C8102E">7–6</text>
  <text x="1003" y="400" text-anchor="middle" font-family="Georgia, serif" font-size="18" fill="#111">DK-stemmer</text>
</svg>
